# xmcd
#
# Track frame offsets:
#	150
#	22142
#	38773
#	53027
#	66377
#	80740
#	93261
#	106963
#	126143
#	142130
#	153820
#	169695
#
# Disc length: 2534 seconds
#
# Revision: 1
# Processed by: cddbd v1.5.2PL0 Copyright (c) Steve Scherf et al.
# Submitted via: audiograbber 1.83.01
#
DISCID=a009e40c
DTITLE=Brian Fitzpatrick - Further Down The Line
DYEAR=2004
DGENRE=Country Rock
TTITLE0=Madonna In Rags
TTITLE1=Further Down The Line
TTITLE2=Stuck In Boston
TTITLE3=Shoot The Moon
TTITLE4=Across The Water
TTITLE5=Valhalla
TTITLE6=Drunk In Vegas
TTITLE7=Far From Thee
TTITLE8=Miracle
TTITLE9=Sweet Maria Reprise
TTITLE10=Lose Your Love
TTITLE11=For Mr. Brown, Wherever You Are
EXTD=
EXTT0=
EXTT1=
EXTT2=
EXTT3=
EXTT4=
EXTT5=
EXTT6=
EXTT7=
EXTT8=
EXTT9=
EXTT10=
EXTT11=
PLAYORDER=
